<svg version="1.1" id="Layer_1" xmlns="http://www.w3.org/2000/svg" xmlns:xlink="http://www.w3.org/1999/xlink" x="0px" y="0px"
	 width="612px" height="792px" viewBox="0 0 612 792" style="enable-background:new 0 0 612 792;" xml:space="preserve">
<path class="st1" d="M82.1,397c0-85.5,0-171,0-256.4c0-13,3.4-25,12.4-34.9c7.9-8.8,17.8-13.8,29.3-15.5c5.4-0.8,10.9-0.8,16.4-0.8
	c79.5,0,159,0,238.4,0c2,0,4,0,6,0c4.1-0.1,7.4,1.3,10.2,4.2c13.8,14.7,27.7,29.3,41.5,44c14.4,15.3,28.8,30.5,43.2,45.8
	c14.9,15.8,29.7,31.5,44.6,47.2c0.8,0.8,1.5,1.9,2.5,2.5c4.2,2.6,5.2,6.7,5.2,11.2c0,1.2,0,2.3,0,3.5c0,134.8,0,269.6,0,404.4
	c0,6.5-0.4,13-2.5,19.2c-6.2,18.5-19.2,29-38.1,32.6c-4.1,0.8-8.3,0.9-12.4,0.9c-115.1,0-230.3,0-345.4,0c-9.6,0-18.8-1.8-27.3-6.7
	c-13.1-7.6-20.6-19-23.3-33.8c-0.8-4.3-1-8.6-1-12.9C82.2,566.6,82.1,481.8,82.1,397z M365.2,127.4c-2.4-0.9-4.2-0.6-6-0.6
	c-74.5,0-149,0-223.5,0c-1.2,0-2.3-0.1-3.5,0c-8.6,0.8-13.1,6-12.3,13.2c0.1,0.7,0,1.3,0,2c0,170,0,340,0,509.9c0,1.3,0,2.7,0,4
	c-0.1,3.2,1.4,5.7,3.6,8c2.8,2.9,6.3,3.2,10.1,3.2c115.7,0,231.3,0,347,0c10.1,0,13.7-3.6,13.7-13.8c0-111.3,0-222.6,0-334
	c0-16.7,0-33.3,0-50c0-1.8,0.6-3.7-0.8-5.5c-1.7,0-3.5,0-5.3,0c-23.8,0-47.7,0.1-71.5,0c-12.4,0-23.9-3.1-33.7-11.3
	c-11-9.1-17.2-20.9-17.4-35c-0.5-28.2-0.1-56.3-0.1-84.5C365.2,131.2,365.2,129.4,365.2,127.4z M465.8,225
	c-0.1-1.8-0.9-2.6-1.7-3.4c-7.8-7.3-14.6-15.5-22.1-23c-8.6-8.6-16.3-18-25.2-26.3c-0.8-0.8-1.4-1.9-2.2-2.7
	c-3.6-3.8-7.3-7.6-11.2-11.7c-0.3,1.3-0.5,1.8-0.5,2.3c0,17.3-0.1,34.6,0,52c0,5.9,2.3,10.7,8.1,12.9
	C429.2,225,447.4,225,465.8,225z"/>
<path class="st1" d="M345.7,611.1c-12,12.7-32,9.6-40.7,1.5c-5-4.7-8.3-10.3-10.1-16.9c-3.3-12.5-2.9-24.8,3.4-36.3
	c7.4-13.5,23.9-18.8,37.9-12.5c1.5,0.7,2.9,1.6,4.3,2.5c1.3,0.9,2.5,2.1,4.4,3.8c0.6-4.1,0.3-7.6,0.3-11.1c0.1-3.7-0.1-7.3,0-11
	c0.1-3.6-0.6-7.3,0.1-11.6c6.5-0.3,13-0.1,19.8-0.1c0,32.9,0,65.3,0,98.3c-6.1,0.4-12.2,0.1-18.1,0.2
	C345.5,615.8,347.1,613.3,345.7,611.1z M346.1,582.2c0.1-4.2-0.4-8.3-2-12.2c-2.7-6.8-7.6-10.1-14.5-10c-6.8,0-12.1,3.6-14.5,10.2
	c-2.7,7.4-2.8,15-0.3,22.5c1,2.9,2.6,5.3,4.7,7.6c5.3,5.8,18.5,6.2,23.5-3.5C345.3,592.1,346.1,587.3,346.1,582.2z"/>
<path class="st1" d="M227.1,546.4c1.2,2.5,0.2,4.6,1,6.4c0.6,0.3,0.9,0,1.2-0.3c9.1-11.5,33.7-11.5,44.6,4.4c5.5,8,7.2,17,7.2,26.5
	c0,6.6-1.2,12.9-3.9,18.9c-7.2,15.6-23.7,20.6-37.7,15.6c-3.8-1.4-6.9-3.9-10.2-7.1c-0.8,5.6-0.3,10.7-0.4,15.7
	c-0.1,5.2,0,10.3,0,15.4c-3.7,1.1-14.6,1.3-20.2,0.3c0-31.7,0-63.4,0-95.9C215,546.3,221.2,546.3,227.1,546.4z M228,582.6
	c-0.2,4.1,0.6,8.1,2.1,12c2.5,6.3,7.6,9.7,14.3,9.7c6.8,0,11.9-3.2,14.4-9.6c3.2-8.4,3.2-17-0.4-25.3c-2.7-6.2-7.5-9.7-14.5-9.5
	c-7,0.2-11.4,4-14,10.2C228.3,574.1,227.8,578.2,228,582.6z"/>
<path class="st1" d="M387,617.8c0-19.5,0-38.3,0-57.3c-3.6-1.2-7.2,0-10.4-0.8c-1-4.1-1-8.4-0.1-13c3.2-0.8,6.5,0.1,9.8-0.6
	c1.4-1.2,0.8-2.8,0.8-4.2c0.4-13.4,6.7-20.6,20-22.3c4.8-0.6,9.6-0.4,14.8,0.8c0,3.5,0,7,0,10.4c0,1.3,0.2,2.6-0.6,4
	c-2.2,0-4.3,0-6.4,0c-5.3,0.1-7.1,1.9-7.3,7.3c0,1.1,0.1,2.3,0.2,3.6c4.1,1.4,8.3,0,12.7,1c0.8,4.2,0.4,8.4,0.2,12.9
	c-4.2,0.9-8.4,0-12.9,0.7c-0.4,6.4-0.2,12.7-0.2,19c0,6.3,0,12.7,0,19c0,6.3,0,12.6,0,19.4C400.6,618,394,617.8,387,617.8z"/>
<path class="st1" d="M167.9,596.4c7,0,14.1,0,21.4,0c0,7,0,13.9,0,21.3c-3.6,0.6-7.2,0.2-10.8,0.3c-3.5,0.1-7,0-10.3,0
	C167.1,614.2,167,602,167.9,596.4z"/>
</svg>