<svg xmlns="http://www.w3.org/2000/svg" xmlns:xlink="http://www.w3.org/1999/xlink" version="1.1" id="Icons" x="0px" y="0px" width="40px" height="40px" viewBox="0 0 100 100" style="enable-background:new 0 0 100 100;" xml:space="preserve">
  <path d="m64.830978 98.954651c20.328865 -6.7 35.1 -25.6 35.1 -48.049961c0 -27.5 -22.3 -49.9 -49.9 -49.89813c-27.488344 0 -49.8 22.4 -49.8 49.89813c0 22.4 14.8 41.4 35.2 48.049961l0 -9.414177c-14.555489 3.3 -17.6 -6.8 -17.6 -6.81562c-2.309998 -5.9 -5.7 -7.5 -5.7 -7.506874c-4.679322 -3.2 0.3 -3.1 0.3 -3.119621c5.141321 0.3 7.9 5.3 7.9 5.255936c4.852997 8.3 12.9 5.3 15.4 4.102684c0.750313 -3.6 3.6 -4.4 4.5 -4.679314c-13.110306 -1.4 -27.1 -6.1 -27.1 -28.818909c0 -6.4 2.3 -11.6 5.9 -15.593987c-0.576626 -1.5 -2.6 -7.4 0.6 -15.416672c0 0 4.9 -1.6 16 5.947058c4.620247 -1.3 9.6 -1.9 14.6 -1.962624c4.908558 0.1 9.9 0.7 14.6 1.962624c11.088501 -7.5 15.9 -5.9 15.9 -5.947058c3.174942 8 1.2 13.9 0.6 15.416672c3.755188 4 6 9.2 6 15.593987c0 22.7 -14 27.4 -27.1 28.75985c2.365559 1.6 4.8 4.7 4.8 10.511749l0 11.724297l-0.00013 0z" id="blacktocat"/>
</svg>
