<svg xmlns="http://www.w3.org/2000/svg" xmlns:xlink="http://www.w3.org/1999/xlink" version="1.1" id="Layer_1" x="0px" y="0px" width="67px" height="86px" viewBox="0 0 73 90" style="enable-background:new 0 0 73 90;" xml:space="preserve">
<path fill="#FFFFFF" d="M61.934 54.792c-4.012 9.781-11.686 23.168-25.528 31.604C22.543 78 14.8 64.6 10.8 54.9 c-3.713-9-5.073-16.644-5.414-18.885c1.656-0.932 3.31-1.381 5.177-1.385h0.018c1.305 0 3.2 0.2 4.2 0.547l0.588 0.2 c0.558 0.2 1.1 0.3 1.7 0.496c2.047 0.6 4.4 1.2 6.1 1.186h0.011c1.961-0.002 5.013-0.258 8.448-1.471 c0.98-0.342 2.149-0.715 3.396-0.881l1.131-0.082c0.021 0 0 0 0.1 0l1.748 0.158c1.062 0.2 2.1 0.5 2.9 0.8 c3.421 1.2 6.5 1.4 8.4 1.449h0.025c1.184-0.004 2.723-0.27 4.849-0.842c0.87-0.234 1.753-0.496 2.594-0.744l0.986-0.293 c1.05-0.301 2.975-0.553 4.292-0.557h0.014c1.86 0 3.6 0.5 5.2 1.338C66.977 38.1 65.6 45.7 61.9 54.8 M4.524 21.416l20.162 4.414c-0.177 0.309-0.342 0.623-0.497 0.945L4.458 24.143C4.46 23.3 4.5 22.4 4.5 21.4 M5.22 14.045l20.942 9.701c-0.397 0.461-0.769 0.947-1.104 1.461L4.625 19.48C4.745 17.7 4.9 15.9 5.2 14 M5.77 10.9 c0.811 0.2 2.4 0.5 4.5 0.705l17.009 11.002c-0.229 0.207-0.442 0.428-0.652 0.65l-21.04-11.26 C5.633 11.6 5.7 11.3 5.8 10.9 M14.829 11.85c2.186 0 4.249-0.186 6.17-0.543l8.583 9.6 c-0.649 0.377-1.263 0.805-1.839 1.283L13.569 11.832C13.983 11.8 14.4 11.9 14.8 11.8 M25.785 10.004l5.696 10 c-0.385 0.146-0.763 0.312-1.13 0.496l-7.245-9.68C24.045 10.6 24.9 10.3 25.8 10 M33.319 6.367l1.734 12.8 c-0.961 0.09-1.889 0.289-2.78 0.57L27.499 9.357C29.887 8.4 31.8 7.3 33.3 6.4 M36.307 4.2 c0.422 0.4 0.9 0.7 1.3 1.018l-0.772 13.939c-0.161-0.008-0.319-0.025-0.485-0.025H36.32c-0.167 0-0.333 0.018-0.5 0 L35.047 5.178C35.604 4.8 36 4.4 36.3 4.2 M39.284 6.367c2.036 1.3 4.1 2.3 5.8 2.986l-4.767 10.4 c-0.882-0.273-1.799-0.465-2.742-0.551L39.284 6.367z M46.778 9.998c1.215 0.4 2.2 0.7 2.7 0.799l-7.253 9.7 c-0.366-0.184-0.744-0.346-1.133-0.494L46.778 9.998z M51.624 11.234c2.126 0.4 4.3 0.6 6.6 0.6 c0.273 0 0.528-0.008 0.791-0.016L44.817 22.164c-0.572-0.467-1.184-0.889-1.828-1.256L51.624 11.234z M62.286 11.6 c2.145-0.217 3.749-0.555 4.562-0.748c0.075 0.4 0.1 0.7 0.2 1.098L45.967 23.223c-0.211-0.225-0.432-0.443-0.665-0.648 L62.286 11.588z M67.409 13.986c0.295 1.9 0.5 3.8 0.6 5.555l-20.419 5.721c-0.356-0.547-0.748-1.064-1.177-1.555 L67.409 13.986z M68.193 24.168l-19.714 2.637c-0.154-0.316-0.32-0.629-0.496-0.932l20.146-4.41 C68.165 22.4 68.2 23.3 68.2 24.2 M62.178 28.398c-1.252 0.004-3.32 0.23-4.604 0.605l-0.914 0.3 c-0.856 0.252-1.756 0.521-2.651 0.758l0 0c-1.224 0.328-2.972 0.75-4.342 0.789c-0.155-1.162-0.453-2.277-0.885-3.328 l19.396-1.457c-0.028 1.346-0.086 2.584-0.165 3.688C66.24 28.9 64.2 28.4 62.2 28.4 M62.099 30.877h-0.015 c-1.259 0-3.328 0.227-4.611 0.605l-0.889 0.262c-0.86 0.252-1.767 0.521-2.666 0.762l0.15 0.559l-0.15-0.559 c-1.287 0.346-3.159 0.803-4.555 0.803h-0.021c-1.871 0-4.777-0.24-8.051-1.385c-0.831-0.287-1.939-0.646-3.104-0.848 c-0.662-0.113-1.282-0.166-1.901-0.166c-0.457 0-0.901 0.031-1.358 0.09c-1.345 0.172-2.594 0.572-3.637 0.9 c-3.279 1.154-6.198 1.402-8.069 1.406h-0.007c-1.592 0-3.827-0.576-5.81-1.141l-2.299-0.67c-1.162-0.338-3.109-0.594-4.537-0.594 h-0.021c-1.979 0.004-3.914 0.49-5.67 1.371c-0.041-0.381-0.082-0.791-0.122-1.236c1.734-0.918 3.847-1.459 5.89-1.459h0.018 c1.31 0 3.2 0.2 4.2 0.547l2.303 0.67l0.158-0.555l-0.156 0.555c2.158 0.6 4.4 1.2 6.1 1.188h0.011 c1.96-0.004 5.019-0.266 8.446-1.473c0.98-0.348 2.149-0.723 3.391-0.881l1.216-0.082l1.732 0.1 c1.08 0.2 2.1 0.5 2.9 0.799c3.421 1.2 6.5 1.4 8.4 1.449h0.025c1.184 0 2.68-0.258 4.85-0.84l0 0 c0.902-0.242 1.812-0.512 2.677-0.768l0.909-0.266c1.047-0.307 2.972-0.559 4.288-0.561h0.012c1.968 0 4 0.5 5.7 1.4 c-0.04 0.473-0.083 0.904-0.123 1.303C66.031 31.4 64.1 30.9 62.1 30.9 M36.383 28.432l-0.002 0.086l-0.004-0.086 c-0.45 0.004-0.906 0.035-1.356 0.094c-1.353 0.172-2.601 0.57-3.639 0.938c-2.815 0.994-5.362 1.314-7.211 1.4 c0.84-6.062 5.957-10.574 12.151-10.584h0.015c6.116 0 11.3 4.6 12.2 10.547c-1.842-0.076-4.346-0.396-7.111-1.363 c-0.832-0.291-1.936-0.648-3.102-0.85l-0.007 0.025L38.28 28.6C37.619 28.5 37 28.4 36.4 28.4 M4.475 26 l19.401 1.461c-0.429 1.057-0.722 2.186-0.873 3.367c-1.569-0.062-3.643-0.588-5.505-1.115l-2.299-0.67 c-1.166-0.338-3.112-0.594-4.535-0.594h-0.021c-2.059 0-4.179 0.516-5.986 1.381C4.573 28.7 4.5 27.4 4.5 26 M62.106 33.371h-0.018c-1.252 0.002-3.32 0.23-4.612 0.604l-0.989 0.291c-0.831 0.248-1.701 0.504-2.564 0.734l0.146 0.6 L53.922 35c-2.025 0.547-3.473 0.803-4.555 0.807h-0.025c-1.871 0-4.781-0.242-8.051-1.387c-0.885-0.309-1.949-0.654-3.102-0.848 c-1.168-0.199-2.184-0.223-3.261-0.08c-1.354 0.178-2.599 0.576-3.638 0.943c-3.283 1.154-6.199 1.398-8.066 1.402h-0.011 c-1.604 0-3.835-0.578-5.807-1.145l-0.158 0.559l0.156-0.559c-0.581-0.162-1.153-0.33-1.703-0.492l-0.595-0.172 c-1.172-0.342-3.113-0.594-4.533-0.594H10.55c-1.928 0.004-3.648 0.449-5.355 1.338c-0.046-0.291-0.105-0.713-0.178-1.248 c1.691-0.926 3.59-1.428 5.533-1.432h0.018c1.313 0 3.2 0.2 4.2 0.549l2.299 0.666l0.162-0.551l-0.158 0.6 c2.16 0.6 4.4 1.2 6.1 1.188h0.011c1.961-0.004 5.017-0.262 8.447-1.471c0.984-0.35 2.158-0.723 3.392-0.883l1.13-0.082 c0.025 0 0 0 0.1 0l1.74 0.154c1.076 0.2 2.1 0.5 2.9 0.799c3.429 1.2 6.5 1.4 8.4 1.447h0.025 c1.18 0 2.673-0.26 4.85-0.842c0.91-0.246 1.824-0.516 2.694-0.773l0.889-0.26c1.039-0.307 2.964-0.557 4.288-0.557h0.011 c1.946 0 3.9 0.5 5.6 1.424c-0.064 0.514-0.122 0.92-0.165 1.209C65.791 33.8 64 33.4 62.1 33.4 M69.272 21.2 l-0.111-1.99c-0.133-1.838-0.353-3.766-0.666-5.736l-0.223-1.336c-0.125-0.711-0.266-1.424-0.424-2.145l-0.13-0.6l-0.59 0.2 c-0.021 0.008-0.972 0.277-2.576 0.543l-3.889 0.443c-0.773 0.051-1.594 0.082-2.457 0.082c-2.267 0.004-4.482-0.201-6.616-0.59 l-1.366-0.266c-0.025-0.008-0.05-0.012-0.072-0.014c-0.028-0.008-1.126-0.238-2.792-0.807l-1.812-0.676 c-1.813-0.725-3.961-1.77-6.095-3.195l-1.78-1.299c-0.334-0.262-0.665-0.531-0.989-0.82l-0.396-0.342l-0.382 0.4 c-0.011 0.012-0.331 0.311-0.938 0.789L33.15 5.092c-1.488 0.986-3.557 2.17-6.133 3.213l-1.812 0.7 c-0.876 0.299-1.795 0.584-2.767 0.832c-0.023 0.004-0.05 0.008-0.071 0.014l-1.576 0.346c-1.854 0.342-3.848 0.525-5.961 0.5 c-1.035 0-2.021-0.039-2.948-0.107L7.986 10.14c-1.541-0.248-2.492-0.484-2.51-0.488l-0.58-0.148l-0.13 0.6 c-0.125 0.576-0.23 1.146-0.336 1.715l-0.297 1.742c-0.303 1.928-0.514 3.816-0.641 5.619l-0.113 2 c-0.041 0.975-0.062 1.918-0.066 2.824l0.014 1.941c0.11 5.5 0.8 9.2 0.8 9.514c0.061 0.5 1.2 9.2 5.6 19.8 c4.102 9.9 11.9 23.5 26.1 32.107l0.615 0.371l0.607-0.371C51.13 78.8 58.9 65.1 63 55.2 c4.339-10.594 5.473-19.378 5.525-19.839c0.055-0.303 0.685-4.018 0.789-9.414l0.014-1.928 C69.333 23.1 69.3 22.2 69.3 21.2"/>
<path fill="#FFFFFF" d="M52.742 48.414c-0.176 0.18-0.41 0.276-0.661 0.276l-4.396 0.009c-0.518 0-0.936-0.423-0.939-0.937 c0-0.514 0.422-0.936 0.936-0.936l0.716-0.004c0 0 0 0 0 0.012l0.011-0.012h0.942l2.73-0.004 c0.511 0 0.9 0.4 0.9 0.936C53.015 48 52.9 48.2 52.7 48.4 M51.875 50.022c-0.166 0.164-0.396 0.248-0.677 0.2 l-2.681 0.004c-0.449 0-0.762-0.332-0.881-0.883c0.018 0 0 0 0 0.004l4.396-0.006c0.024 0 0.046-0.016 0.071-0.016 C52.102 49.6 52 49.9 51.9 50 M50.774 61.333l-1.78 0.002l-0.476-10.359l0 0l2.681-0.004 c0.021 0 0.036-0.01 0.058-0.014L50.774 61.333z M51.954 62.791c0 0.416-0.342 0.758-0.758 0.758l-2.559 0.005l-0.004 0.35v-0.35 c-0.417 0-0.751-0.343-0.751-0.761c0-0.416 0.338-0.754 0.751-0.754l1.447-0.004l1.111-0.004 C51.609 62 52 62.4 52 62.8 M49.885 69.196c-0.306 0-0.557-0.247-0.557-0.567l-0.198-4.377h1.511L50.44 68.6 C50.44 68.9 50.2 69.2 49.9 69.2 M46.353 44.63c0-0.58 0.237-1.062 0.485-1.568c0.299-0.609 0.63-1.281 0.493-2.123 c0.429 0.2 1 0.5 1.4 0.918c-0.007 0.006-0.015 0.014-0.021 0.018c-0.101 0.111-0.205 0.227-0.292 0.3 c-0.021 0.018-1.791 1.744-0.518 3.923h-0.224c-0.125 0.004-0.248 0.021-0.37 0.047C47.112 46.1 46.4 45.7 46.4 44.6 M50.192 40.889c0.097-0.277 0.1-0.576 0.05-0.855c0.72 0.7 1.6 1.7 1.6 2.936c0.011 1.546-0.975 2.736-1.371 3.154h-0.251 c-0.31-0.424-0.91-1.389-0.273-2.46c0.126-0.215 0.705-1.107 0.776-1.277c0.098-0.207 0.087-0.402 0.087-0.402 c-0.097 0.158-0.267 0.346-0.267 0.346c-0.165 0.18-0.733 0.77-0.913 0.986c-0.939 1.14-0.31 2.384-0.062 2.808l-0.813 0 c-1.399-1.876 0.098-3.353 0.188-3.443c0.104-0.117 0.205-0.23 0.302-0.334C49.616 41.9 50 41.6 50.2 40.9 M52.271 41.482c0.298-0.363 0.575-0.594 0.802-0.738c-0.176 1.6 0.7 3.2 0.7 3.238c0.399 1.378-0.965 2.046-1.299 2.2 c-0.119-0.029-0.241-0.047-0.374-0.047h-0.709c0.518-0.67 1.158-1.781 1.148-3.158C52.516 42.4 52.3 41.5 52.3 41.5 M53.192 46.565c0.784-0.481 1.618-1.417 1.201-2.844c-0.007-0.02-0.996-1.926-0.511-3.447l0.162-0.514l-0.536 0.1 c-0.083 0.008-0.81 0.133-1.647 1.072c-0.827-1.342-2.166-2.17-2.249-2.217l-1.331-0.787l0.864 1.3 c0.154 0.2 0.6 1 0.4 1.48c-0.094 0.271-0.213 0.477-0.35 0.666c-0.885-0.895-2.234-1.262-2.291-1.277l-0.695-0.184 l0.285 0.658c0.389 0.9 0.1 1.516-0.271 2.234c-0.263 0.537-0.558 1.137-0.554 1.878c0 1 0.5 1.6 0.9 1.9 c-0.335 0.299-0.547 0.729-0.547 1.213c0.004 0.6 0.4 1.1 0.9 1.424c0.076 0.8 0.4 1.3 0.9 1.598l0.489 10.6 c-0.637 0.154-1.119 0.703-1.119 1.385c0 0.7 0.6 1.3 1.2 1.418l0.205 4.432c0 0.7 0.6 1.3 1.3 1.3 c0.691 0 1.252-0.561 1.252-1.235l0.205-4.439c0.73-0.079 1.311-0.68 1.307-1.428c0-0.707-0.512-1.269-1.177-1.399l0.489-10.613 c0.147-0.07 0.291-0.146 0.406-0.262c0.32-0.32 0.489-0.787 0.525-1.373c0.119-0.072 0.244-0.136 0.346-0.234 c0.306-0.307 0.479-0.721 0.475-1.152C53.713 47.3 53.5 46.9 53.2 46.6"/>
<path fill="#FFFFFF" d="M24.674 48.724l-4.393 0.008c-0.518 0-0.938-0.418-0.938-0.934c0-0.252 0.095-0.484 0.271-0.66 c0.177-0.182 0.411-0.277 0.66-0.277h0.714c0 0 0 0 0 0.007l0.011-0.007h0.946l1.381-0.004h1.346 c0.515 0 0.9 0.4 0.9 0.933C25.616 48.3 25.2 48.7 24.7 48.7 M24.482 50.065c-0.159 0.158-0.39 0.24-0.688 0.2 l-2.676 0.004c-0.443 0-0.76-0.338-0.883-0.885c0.019 0 0 0 0 0.008l4.393-0.008c0.027 0 0.051-0.008 0.076-0.008 C24.702 49.7 24.6 49.9 24.5 50.1 M23.373 61.369l-1.78 0.004l-0.479-10.365c0.003 0 0 0 0 0l2.678-0.002 c0.02 0 0.033-0.008 0.054-0.008L23.373 61.369z M24.547 62.826c0 0.2-0.078 0.393-0.222 0.5 c-0.142 0.146-0.335 0.226-0.538 0.226h-2.553l-0.003 0.349v-0.349c-0.417 0-0.757-0.338-0.757-0.756s0.34-0.761 0.757-0.761h1.446 l1.107-0.004C24.208 62.1 24.5 62.4 24.5 62.8 M22.484 69.229c-0.308 0-0.562-0.248-0.562-0.569l-0.199-4.373 l1.516-0.004l-0.203 4.393C23.036 69 22.8 69.2 22.5 69.2 M18.952 44.666c0-0.578 0.235-1.06 0.485-1.568 c0.299-0.607 0.63-1.281 0.493-2.127c0.428 0.2 1 0.5 1.4 0.918c-0.009 0.008-0.015 0.018-0.025 0 c-0.097 0.107-0.202 0.219-0.288 0.32c-0.021 0.018-1.791 1.74-0.52 3.923h-0.218c-0.115 0-0.22 0.043-0.331 0.1 C19.865 46.2 19 45.8 19 44.7 M22.786 40.926c0.1-0.281 0.1-0.58 0.051-0.863c0.719 0.7 1.6 1.7 1.6 2.9 c0.013 1.546-0.973 2.738-1.372 3.154H22.8c-0.31-0.425-0.912-1.387-0.275-2.458c0.127-0.221 0.705-1.109 0.78-1.281 c0.088-0.209 0.079-0.398 0.079-0.398c-0.097 0.158-0.263 0.342-0.263 0.342c-0.169 0.182-0.733 0.77-0.91 1 c-0.944 1.14-0.31 2.384-0.068 2.808l-0.813 0.004c-1.398-1.876 0.096-3.355 0.188-3.441c0.101-0.119 0.203-0.227 0.297-0.328 C22.208 42 22.5 41.6 22.8 40.9 M24.864 41.518c0.299-0.363 0.58-0.592 0.804-0.736 c-0.175 1.6 0.7 3.2 0.7 3.234c0.398 1.379-0.965 2.049-1.295 2.187c-0.123-0.024-0.246-0.045-0.375-0.045h-0.709 c0.517-0.673 1.162-1.779 1.148-3.158C25.11 42.4 24.9 41.5 24.9 41.5 M25.788 46.6 c0.787-0.481 1.617-1.419 1.204-2.845c-0.011-0.018-1.001-1.924-0.517-3.445l0.166-0.52l-0.54 0.1 c-0.081 0.006-0.804 0.129-1.642 1.068c-0.832-1.342-2.17-2.166-2.252-2.213l-1.319-0.781l0.854 1.3 c0.162 0.2 0.6 1 0.4 1.486c-0.096 0.27-0.212 0.475-0.347 0.666c-0.884-0.896-2.232-1.264-2.292-1.277l-0.694-0.184 l0.286 0.658c0.389 0.9 0.1 1.514-0.271 2.234c-0.261 0.531-0.556 1.137-0.556 1.876c0.001 1 0.5 1.6 0.9 1.9 c-0.02 0.023-0.05 0.029-0.07 0.051c-0.307 0.312-0.476 0.721-0.475 1.154c0 0.6 0.3 1.1 0.9 1.4 c0.071 0.7 0.4 1.3 0.9 1.598l0.49 10.619c-0.637 0.154-1.118 0.705-1.118 1.39c0 0.7 0.5 1.3 1.2 1.4 l0.204 4.437c0 0.7 0.6 1.3 1.3 1.257c0.688 0 1.252-0.564 1.252-1.242l0.205-4.437c0.331-0.035 0.641-0.158 0.878-0.397 c0.277-0.277 0.428-0.646 0.424-1.029c0-0.701-0.51-1.264-1.176-1.4l0.487-10.598c0.155-0.072 0.304-0.15 0.423-0.27 c0.309-0.31 0.475-0.773 0.513-1.359c0.487-0.285 0.822-0.807 0.822-1.41C26.312 47.3 26.1 46.9 25.8 46.6"/>
<path fill="#FFFFFF" d="M40.42 50.464c-0.273 0.273-0.637 0.426-1.021 0.426l-6.148 0.006c-0.797 0-1.445-0.646-1.449-1.44 c0-0.799 0.649-1.451 1.446-1.451c0 0 4.1 0 4.104-0.006h2.047c0.795 0 1.4 0.6 1.4 1.4 C40.841 49.8 40.7 50.2 40.4 50.5 M38.168 52.908l-3.748 0.004h-0.004c-0.598 0-1.141-0.647-1.35-1.332 c0.062 0 0.1 0 0.2 0.019l6.148-0.011c0.075 0 0.151-0.014 0.227-0.021C39.403 52.2 38.8 52.9 38.2 52.9 M37.708 68.567l-2.76 0.002l-0.687-14.981c0.051 0 0.1 0 0.2 0.021h0.004l3.748-0.004c0.079 0 0.155-0.021 0.23-0.03 L37.708 68.567z M39.356 70.462c0 0.662-0.539 1.199-1.198 1.199l-3.568 0.006c-0.662 0-1.202-0.539-1.203-1.197 c0-0.662 0.538-1.201 1.196-1.201l2.693-0.004h0.875C38.813 69.3 39.4 69.8 39.4 70.5 M37.241 78.6 c0 0.24-0.094 0.472-0.267 0.646c-0.173 0.174-0.398 0.268-0.644 0.268h-0.004c-0.244 0-0.473-0.094-0.646-0.268 c-0.175-0.168-0.269-0.398-0.269-0.662l-0.291-6.262l2.408-0.004L37.241 78.644z M31.254 45.1 c-0.002-0.837 0.334-1.525 0.69-2.253c0.458-0.932 0.929-1.893 0.623-3.148c0.615 0.2 1.5 0.7 2.2 1.4 c-0.079 0.086-0.156 0.174-0.241 0.266c-0.135 0.145-0.277 0.299-0.399 0.443c-0.028 0.025-2.543 2.473-0.579 5.526h-0.304 c-0.184 0-0.358 0.032-0.53 0.075C32.557 47.3 31.3 46.8 31.3 45.1 M36.378 39.791c0.189-0.531 0.121-1.125-0.016-1.633 c1.079 0.9 2.7 2.5 2.7 4.59c0.021 2.267-1.454 3.998-1.993 4.55h-0.176c-0.288-0.434-0.602-1.133-0.602-1.932 c-0.002-1.531 0.745-2.423 0.745-2.423s-0.945 0.641-1.108 2.05c-0.077 0.7 0.1 1.4 0.5 2.309h-0.896 c-0.342-0.504-1.266-1.957-0.299-3.585c0.18-0.303 1.146-1.547 1.252-1.789c0.124-0.287 0.113-0.557 0.113-0.557 c-0.135 0.223-0.369 0.482-0.369 0.482c-0.233 0.256-1.025 1.078-1.277 1.377c-1.433 1.742-0.252 3.656-0.007 4.072h-0.542 c-2.105-2.748 0.104-4.923 0.226-5.042c0.141-0.162 0.277-0.309 0.407-0.453C35.583 41.2 36 40.7 36.4 39.8 M40.827 40.127c-0.453 2.2 0.3 3.9 0.3 4c0.575 1.988-0.846 2.966-1.284 3.216c-0.141-0.029-0.292-0.047-0.443-0.047 l-1.398 0.002c0.729-0.881 1.772-2.496 1.755-4.552c-0.004-0.529-0.101-1.025-0.251-1.498 C40.01 40.6 40.5 40.3 40.8 40.1 M40.597 47.666c0.72-0.562 1.763-1.767 1.183-3.769 c-0.007-0.021-0.812-2.021-0.11-4.219l0.161-0.52l-0.539 0.064c-0.039 0.004-0.975 0.145-2.076 1.3 c-1.058-2.217-3.334-3.586-3.459-3.662L34.6 36.184l0.68 1.162c0.007 0 0.8 1.3 0.4 2.2 c-0.141 0.391-0.313 0.693-0.51 0.971c-1.203-1.281-3.038-1.723-3.117-1.742L31.42 38.63l0.278 0.6 c0.57 1.3 0.1 2.203-0.38 3.242c-0.375 0.766-0.764 1.561-0.762 2.564c0.001 1.4 0.7 2.2 1.4 2.7 c-0.511 0.396-0.845 1.008-0.845 1.699c0.003 0.8 0.5 1.6 1.2 1.914c0.117 0.8 0.6 1.6 1.3 2.004l-0.023 0 l0.704 15.232c-0.89 0.158-1.567 0.932-1.567 1.863c0.002 1 0.8 1.8 1.7 1.877l0.291 6.3 c0 0.4 0.2 0.8 0.5 1.139c0.307 0.3 0.7 0.5 1.1 0.473h0.008c0.43 0 0.835-0.17 1.139-0.475 c0.304-0.307 0.473-0.713 0.469-1.127l0.292-6.303c1.011-0.039 1.824-0.869 1.824-1.894c-0.004-0.959-0.724-1.744-1.647-1.871 l0.701-15.272h-0.004c0.684-0.418 1.184-1.223 1.288-1.986c0.187-0.096 0.366-0.219 0.521-0.373c0.406-0.408 0.63-0.947 0.626-1.52 C41.54 48.7 41.2 48 40.6 47.7"/>
</svg>
